<svg width="28" height="28" viewBox="0 0 28 28" fill="none" xmlns="http://www.w3.org/2000/svg">
<g clip-path="url(#clip0_9_626)">
<path fill-rule="evenodd" clip-rule="evenodd" d="M6.56955 14.7247C6.476 14.623 6.38172 14.5213 6.28669 14.4203C5.31778 13.3924 4.35686 12.3637 3.46186 11.2686C3.24499 11.0034 2.83863 10.4896 2.41834 10.2145C2.11774 10.0177 1.80095 9.92569 1.50585 9.94831C1.31782 9.96263 1.04005 10.0429 0.884822 10.3941C0.858684 10.4531 0.826028 10.5552 0.808508 10.6867C0.78036 10.8993 0.777861 11.2832 0.78058 11.3365C0.817104 12.1128 0.855346 12.8553 0.955405 13.6265C1.04738 14.3363 1.09868 15.0494 1.20044 15.7585C1.35269 16.8195 1.56608 17.8442 1.90119 18.8642C2.02551 19.243 2.43411 19.4492 2.81285 19.3249C3.19122 19.2005 3.39779 18.7923 3.27347 18.4136C2.965 17.4741 2.77028 16.5306 2.63041 15.5534C2.5294 14.8508 2.47886 14.1439 2.38764 13.4407C2.32842 12.9832 2.29253 12.5363 2.26549 12.0858L2.34338 12.1827C3.26018 13.3042 4.24332 14.3582 5.23557 15.4108C5.60679 15.805 5.96412 16.2093 6.34178 16.5976C6.3715 16.6462 6.5088 16.8686 6.57792 16.9459C6.69287 17.0747 6.82031 17.1498 6.93256 17.1895C7.21776 17.2908 7.51332 17.2736 7.78658 16.9621C7.99114 16.7287 8.12097 16.3575 8.13553 15.907C8.15574 15.2879 7.96237 14.4606 7.93167 14.0822C7.73716 11.6885 7.34742 9.29424 7.33355 6.88906C7.33136 6.49049 7.006 6.16879 6.60743 6.17098C6.20885 6.17353 5.88679 6.49886 5.88934 6.89745C5.90318 9.33879 6.29435 11.7693 6.49172 14.1993C6.50251 14.3286 6.53435 14.5135 6.56955 14.7247Z" fill="#3B3B3B"/>
<path fill-rule="evenodd" clip-rule="evenodd" d="M13.3726 5.18832C12.5436 5.36355 11.7146 5.51093 11.029 6.03947C10.3118 6.59279 9.91893 7.42943 9.74618 8.37522C9.52584 9.58182 9.66867 10.9707 9.75082 11.9594C9.79353 12.4714 9.78678 13.1815 9.90313 13.817C10.0034 14.3633 10.1963 14.858 10.5106 15.2135C11.0043 15.7718 11.8008 15.8661 12.6374 15.5759C13.6039 15.2407 14.5919 14.4039 14.8745 13.9012C15.07 13.5538 14.9467 13.113 14.599 12.9178C14.2517 12.7223 13.8112 12.8456 13.6156 13.1929C13.4364 13.5118 12.7771 13.9986 12.1639 14.2116C12.027 14.2589 11.8922 14.2925 11.7662 14.2962C11.7007 14.2983 11.6349 14.3044 11.5928 14.2571C11.3867 14.0235 11.3286 13.6579 11.284 13.2894C11.2215 12.7756 11.224 12.2424 11.1905 11.8394C11.1168 10.9552 10.9702 9.71371 11.167 8.63464C11.2727 8.05606 11.4723 7.52202 11.9114 7.18346C12.4209 6.79062 13.0545 6.73201 13.6711 6.60169C14.061 6.51952 14.3108 6.13591 14.2283 5.74592C14.1461 5.35594 13.7625 5.10615 13.3726 5.18832Z" fill="#3B3B3B"/>
<path fill-rule="evenodd" clip-rule="evenodd" d="M13.124 8.98615C12.4728 9.29913 11.7775 9.6196 11.0861 9.82893C10.7045 9.94443 10.4884 10.3478 10.6036 10.7294C10.7191 11.1109 11.1225 11.327 11.504 11.2115C12.2656 10.9811 13.0328 10.6328 13.7496 10.2885C14.1087 10.1158 14.2605 9.68381 14.0878 9.32468C13.9151 8.96519 13.4835 8.81385 13.124 8.98615Z" fill="#3B3B3B"/>
<path fill-rule="evenodd" clip-rule="evenodd" d="M21.8161 9.81134C21.3218 9.14771 20.7972 8.49267 20.2384 7.89012C20.1928 7.84117 19.6247 7.32275 19.2816 7.12238C19.0502 6.98733 18.8407 6.95428 18.7167 6.95993C18.3561 6.97633 18.1273 7.15961 18.0207 7.48757C17.9187 7.80203 17.8708 8.13261 17.8536 8.47161C17.3709 7.44447 16.9352 6.39114 16.6937 5.29307C16.6737 5.20238 16.656 5.15954 16.6532 5.1518C16.5645 4.92601 16.4265 4.84379 16.3775 4.81165C16.1368 4.65336 15.912 4.66655 15.7191 4.74173C15.6955 4.75065 15.1755 4.9506 15.2677 5.53345C15.2751 5.58046 15.3413 5.9161 15.3589 6.0468C15.3744 6.1604 15.4154 6.26408 15.4756 6.3532C15.9001 7.80586 16.5919 9.19292 17.2547 10.5467C17.3979 10.8392 17.506 11.1387 17.5711 11.4576C17.5903 11.5508 17.5894 11.7594 17.6052 11.8625C17.6321 12.0371 17.6969 12.1564 17.739 12.2179C17.9578 12.5377 18.2451 12.5838 18.5156 12.5183C18.6313 12.4906 18.8634 12.4254 19.0191 12.1017C19.3691 11.3746 19.3754 10.5523 19.3268 9.72114C19.3126 9.47527 19.2918 9.22907 19.2839 8.98641C19.8931 9.6566 20.4579 10.3903 20.9866 11.1219C21.0447 11.2022 21.6373 11.9366 21.799 12.0497C22.2033 12.3335 22.5375 12.1526 22.6823 12.0421C22.9032 11.8733 23.0854 11.5734 23.1732 11.1841C23.2862 10.6804 23.2528 9.97755 23.2603 9.69589C23.3106 7.80017 23.3425 5.81748 23.0111 3.94722C22.9418 3.55465 22.5667 3.29262 22.1742 3.362C21.7816 3.43138 21.5195 3.80679 21.589 4.19901C21.9034 5.97512 21.8639 7.85801 21.8163 9.65769C21.8152 9.69922 21.8155 9.75129 21.8161 9.81134Z" fill="#3B3B3B"/>
<path fill-rule="evenodd" clip-rule="evenodd" d="M25.0222 3.56841C25.2195 4.84575 25.4178 6.11156 25.5227 7.42001C25.5546 7.81755 25.9029 8.11438 26.3005 8.08249C26.6977 8.05058 26.9945 7.70226 26.9626 7.30471C26.8147 5.45932 26.4862 3.69768 26.2289 1.87168C26.1298 1.16592 25.4606 1.22994 25.4194 1.23509C25.3288 1.2464 24.8341 1.32578 24.7888 1.89803C24.786 1.93295 24.7968 2.18153 24.7959 2.27766C24.7935 2.49774 24.7782 2.71211 24.7559 2.93154C24.73 3.18441 24.8377 3.42021 25.0222 3.56841Z" fill="#3B3B3B"/>
<path fill-rule="evenodd" clip-rule="evenodd" d="M26.511 11.1174C26.5955 10.8982 26.5713 10.6417 26.4241 10.4365C26.1914 10.1126 25.7399 10.0387 25.416 10.2714C25.117 10.4862 25.049 10.763 25.0703 11.1068C25.0949 11.5047 25.4382 11.8078 25.8361 11.7828C26.1999 11.7604 26.4844 11.4711 26.511 11.1174Z" fill="#3B3B3B"/>
<path fill-rule="evenodd" clip-rule="evenodd" d="M12.1883 24.34C12.1226 24.1805 12.0697 24.0545 12.057 24.0274C11.4505 22.7402 10.7862 21.4666 10.0545 20.246C9.84948 19.9041 9.4057 19.793 9.06373 19.998C8.72176 20.203 8.61064 20.6468 8.81565 20.9888C9.5227 22.168 10.1642 23.3991 10.7504 24.6431C10.7952 24.7379 11.0828 25.5751 11.3006 25.9293C11.498 26.2499 11.76 26.3742 11.9121 26.4047C12.1537 26.4531 12.539 26.3852 12.869 25.9883C13.2999 25.4703 13.8962 24.0583 13.9945 23.8239C14.1747 23.3926 14.3319 22.9385 14.4788 22.4965C14.7571 21.6581 14.9363 20.7994 15.1013 19.9335C15.1762 19.5417 14.9188 19.1634 14.527 19.0886C14.1356 19.0141 13.757 19.2715 13.6825 19.6629C13.5293 20.4662 13.3662 21.2635 13.108 22.0411C12.9723 22.449 12.8281 22.8687 12.6618 23.2667C12.6116 23.386 12.4152 23.8793 12.1883 24.34Z" fill="#3B3B3B"/>
</g>
<defs>
<clipPath id="clip0_9_626">
<rect width="26" height="26" fill="white" transform="translate(1.31836) rotate(2.90577)"/>
</clipPath>
</defs>
</svg>
